<svg id="bold" enable-background="new 0 0 24 24" height="512" viewBox="0 0 24 24" width="512" xmlns="http://www.w3.org/2000/svg"><path d="m21.25 0h-10.5c-1.517 0-2.75 1.233-2.75 2.75v2.433c.323-.114.657-.183 1-.183.801 0 1.555.312 2.121.879l4 4c.567.566.879 1.32.879 2.121s-.312 1.555-.879 2.121l-4 4c-.566.567-1.32.879-2.121.879-.344 0-.678-.069-1-.183v2.433c0 1.517 1.233 2.75 2.75 2.75h10.5c1.517 0 2.75-1.233 2.75-2.75v-18.5c0-1.517-1.233-2.75-2.75-2.75z"/><path d="m8.617 16.924c-.373-.155-.617-.52-.617-.924v-3h-7c-.552 0-1-.448-1-1s.448-1 1-1h7v-3c0-.404.244-.769.617-.924.374-.155.804-.069 1.09.217l4 4c.391.391.391 1.023 0 1.414l-4 4c-.286.286-.716.372-1.09.217z"/></svg>